{
    "asset" : {
        "generator" : "Khronos glTF Blender I/O v3.4.50",
        "version" : "2.0"
    },
    "scene" : 0,
    "scenes" : [
        {
            "name" : "Scene",
            "nodes" : [
                0
            ]
        }
    ],
    "nodes" : [
        {
            "mesh" : 0,
            "name" : "Curve",
            "scale" : [
                7.817777633666992,
                7.817777633666992,
                7.817777633666992
            ]
        }
    ],
    "materials" : [
        {
            "doubleSided" : true,
            "name" : "SVGMat.002",
            "pbrMetallicRoughness" : {
                "baseColorFactor" : [
                    0.010960093699395657,
                    0.3324515223503113,
                    0.6938717365264893,
                    1
                ],
                "metallicFactor" : 0,
                "roughnessFactor" : 0.4000000059604645
            }
        }
    ],
    "meshes" : [
        {
            "name" : "Curve.002",
            "primitives" : [
                {
                    "attributes" : {
                        "POSITION" : 0,
                        "TEXCOORD_0" : 1,
                        "NORMAL" : 2
                    },
                    "indices" : 3,
                    "material" : 0
                }
            ]
        }
    ],
    "accessors" : [
        {
            "bufferView" : 0,
            "componentType" : 5126,
            "count" : 2474,
            "max" : [
                0.015351764857769012,
                0.004000000189989805,
                0.02306765504181385
            ],
            "min" : [
                -0.025389423593878746,
                -0.004000000189989805,
                -0.020654931664466858
            ],
            "type" : "VEC3"
        },
        {
            "bufferView" : 1,
            "componentType" : 5126,
            "count" : 2474,
            "type" : "VEC2"
        },
        {
            "bufferView" : 2,
            "componentType" : 5126,
            "count" : 2474,
            "type" : "VEC3"
        },
        {
            "bufferView" : 3,
            "componentType" : 5123,
            "count" : 4272,
            "type" : "SCALAR"
        }
    ],
    "bufferViews" : [
        {
            "buffer" : 0,
            "byteLength" : 29688,
            "byteOffset" : 0,
            "target" : 34962
        },
        {
            "buffer" : 0,
            "byteLength" : 19792,
            "byteOffset" : 29688,
            "target" : 34962
        },
        {
            "buffer" : 0,
            "byteLength" : 29688,
            "byteOffset" : 49480,
            "target" : 34962
        },
        {
            "buffer" : 0,
            "byteLength" : 8544,
            "byteOffset" : 79168,
            "target" : 34963
        }
    ],
    "buffers" : [
        {
            "byteLength" : 87712,
            "uri" : "data:application/octet-stream;base64,"
        }
    ]
}
